<svg width="25" height="12" viewBox="0 0 25 12" fill="none" xmlns="http://www.w3.org/2000/svg">
<path d="M17.8158 0.243345C17.7321 0.319824 17.6656 0.410812 17.6202 0.511062C17.5749 0.611313 17.5515 0.718841 17.5515 0.827444C17.5515 0.936046 17.5749 1.04357 17.6202 1.14382C17.6656 1.24407 17.7321 1.33506 17.8158 1.41154L21.9258 5.19584H0.893471C0.656508 5.19584 0.42925 5.28251 0.261692 5.43679C0.0941333 5.59108 0 5.80033 0 6.01851C0 6.2367 0.0941333 6.44595 0.261692 6.60023C0.42925 6.75451 0.656508 6.84119 0.893471 6.84119H21.9079L17.8158 10.6008C17.6494 10.7549 17.556 10.9634 17.556 11.1808C17.556 11.3981 17.6494 11.6066 17.8158 11.7608C17.9832 11.914 18.2097 12 18.4457 12C18.6818 12 18.9082 11.914 19.0756 11.7608L24.7581 6.52857C24.8346 6.461 24.8954 6.3799 24.937 6.29012C24.9786 6.20035 25 6.10377 25 6.00617C25 5.90858 24.9786 5.81199 24.937 5.72222C24.8954 5.63245 24.8346 5.55134 24.7581 5.48377L19.0845 0.243345C19.0015 0.166238 18.9027 0.105036 18.7938 0.0632695C18.6849 0.0215034 18.5681 0 18.4502 0C18.3322 0 18.2155 0.0215034 18.1066 0.0632695C17.9977 0.105036 17.8989 0.166238 17.8158 0.243345Z" fill="white"/>
</svg>
