<svg width="30" height="23" viewBox="0 0 30 23" fill="none" xmlns="http://www.w3.org/2000/svg">
<path d="M0.159752 5.77959C0.159754 4.96707 0.331074 4.16369 0.662533 3.42186C0.99399 2.68003 1.47814 2.01642 2.08339 1.47434C2.68863 0.932258 3.40137 0.523881 4.1751 0.275858C4.94884 0.0278344 5.76617 -0.0542625 6.57377 0.0349249C6.61544 0.0349249 6.65711 0.0443339 6.69877 0.0510544L25.0255 2.25806C25.1569 2.2736 25.2779 2.33703 25.3655 2.43623C25.453 2.53542 25.5009 2.6634 25.5 2.7957V8.64251C25.5012 8.77337 25.4546 8.90018 25.369 8.99915C25.2834 9.09813 25.1646 9.16248 25.0349 9.18015L9.80229 11.2648L9.85336 11.4517L11.3628 12.6345C11.4509 12.7035 11.5154 12.7983 11.5471 12.9056C11.5788 13.013 11.5762 13.1276 11.5396 13.2334C11.503 13.3392 11.4344 13.431 11.3432 13.4959C11.2519 13.5608 11.1427 13.5956 11.0308 13.5955C10.9103 13.5953 10.7934 13.5545 10.6988 13.4799L10.3346 13.1936L12.5644 21.3711C12.5861 21.4508 12.5891 21.5345 12.5732 21.6156C12.5573 21.6967 12.523 21.773 12.4728 21.8387C12.4226 21.9044 12.3579 21.9576 12.2838 21.9942C12.2098 22.0308 12.1282 22.0499 12.0456 22.0499H8.66384C8.56785 22.0499 8.4736 22.0242 8.39087 21.9756C8.30815 21.9269 8.23996 21.8569 8.19341 21.773L0.9904 8.76482L0.983683 8.74869C0.443594 7.85257 0.158686 6.82588 0.159752 5.77959ZM1.23503 5.77959C1.23698 6.88965 1.63063 7.96342 2.34664 8.81171C3.06264 9.66 4.05505 10.2284 5.14903 10.4167L5.26328 10.4342L5.39769 10.4517L5.56301 10.4678L5.66517 10.4745C5.75791 10.4745 5.84931 10.4839 5.94205 10.4839C6.03479 10.4839 6.15979 10.4839 6.26866 10.4718H6.34393C6.45146 10.4638 6.55899 10.4517 6.66517 10.4355C6.73775 10.4234 6.80899 10.4113 6.87888 10.3966L6.91786 10.3885L7.09932 10.3468L7.14098 10.3361C7.20281 10.3199 7.26329 10.3038 7.32378 10.285H7.33587L7.36007 10.2769C7.42324 10.2568 7.48776 10.2353 7.55093 10.2124L7.57244 10.2043L7.60873 10.1909C7.68803 10.16 7.76733 10.1277 7.84529 10.0928L7.91652 10.0605C7.98373 10.0283 8.05094 9.99601 8.11814 9.96106C8.20685 9.91402 8.29421 9.86563 8.37889 9.81456C8.49448 9.74466 8.6047 9.66805 8.71357 9.58875L8.78615 9.53499L8.92056 9.43283L8.97433 9.38848C9.11613 9.26546 9.25076 9.13443 9.37756 8.996C9.39637 8.97719 9.41385 8.95837 9.43132 8.93821C9.44879 8.91805 9.49987 8.86025 9.53347 8.82127L9.60068 8.74063C9.6289 8.70434 9.65847 8.66804 9.6867 8.63041C9.71492 8.59278 9.74181 8.55514 9.76869 8.51751L9.83052 8.43014C9.87756 8.36025 9.92326 8.29573 9.96492 8.21777C9.97333 8.20479 9.98096 8.19133 9.98777 8.17745C10.0254 8.11428 10.0617 8.04976 10.0966 7.98524L10.1222 7.93551C10.1558 7.86965 10.188 7.8011 10.219 7.73659C10.219 7.72315 10.2297 7.70971 10.2364 7.69626C10.2714 7.61696 10.305 7.53766 10.3359 7.45702C10.4025 7.28142 10.4582 7.10186 10.5026 6.91938V6.91131C10.5227 6.82932 10.5402 6.74733 10.5563 6.664C10.5563 6.64653 10.563 6.62905 10.5657 6.61158C10.5774 6.54169 10.5881 6.47179 10.598 6.4019C10.598 6.37905 10.6047 6.3562 10.6061 6.33335C10.6141 6.26615 10.6208 6.19894 10.6249 6.13039C10.6249 6.10754 10.6249 6.08335 10.6249 6.0605C10.6249 5.97179 10.6329 5.88174 10.6329 5.79168C10.6329 5.70163 10.6329 5.63577 10.6329 5.55915V5.49598C10.6329 5.43953 10.6249 5.38308 10.6195 5.32662C10.6195 5.30512 10.6195 5.28361 10.6128 5.26211C10.6061 5.20566 10.5993 5.14921 10.5913 5.0941C10.5913 5.07528 10.5846 5.05781 10.5819 5.04033C10.5725 4.97985 10.5617 4.91936 10.5496 4.86022C10.5467 4.84826 10.5445 4.83614 10.5429 4.82393C10.5281 4.75673 10.5133 4.68952 10.4958 4.62232V4.61291C10.2937 3.83844 9.89807 3.12806 9.34602 2.54849C8.79397 1.96893 8.10365 1.53922 7.33991 1.29972C7.27405 1.27956 7.2055 1.26074 7.14232 1.24461L7.07915 1.22848C7.03345 1.21638 6.98641 1.20563 6.94474 1.19622L6.83722 1.17472L6.7391 1.15724L6.60469 1.13439C6.39261 1.10556 6.17892 1.0903 5.9649 1.0887H5.95146C4.70402 1.08548 3.50638 1.57785 2.62192 2.45753C1.73745 3.3372 1.23859 4.53215 1.23503 5.77959ZM24.4301 8.17342V3.26882L9.84799 1.51209C10.6737 2.26881 11.2613 3.24959 11.5389 4.33468L11.5469 4.36425C11.5671 4.4449 11.5859 4.52689 11.6034 4.60888C11.6034 4.63173 11.6114 4.65458 11.6168 4.67877C11.6303 4.74866 11.6437 4.81318 11.6545 4.89114C11.6545 4.92877 11.6639 4.96641 11.6692 5.00404C11.6773 5.06318 11.6854 5.12232 11.6921 5.18146C11.6988 5.2406 11.7015 5.29168 11.7055 5.34813C11.7096 5.40458 11.7136 5.4355 11.7149 5.48254C11.7149 5.58335 11.723 5.68415 11.723 5.78631C11.723 5.88846 11.723 5.99464 11.7149 6.09679C11.7149 6.11964 11.7149 6.14115 11.7149 6.164C11.7149 6.24599 11.7042 6.32798 11.6948 6.40862L11.6867 6.47314C11.6773 6.55513 11.6665 6.63712 11.6531 6.71776C11.6531 6.73658 11.6464 6.7554 11.6424 6.77422C11.628 6.85934 11.6119 6.94268 11.594 7.02422L11.5819 7.07395C11.5631 7.15863 11.5415 7.2433 11.5187 7.32664L11.5066 7.37234C11.4824 7.45567 11.4569 7.539 11.4286 7.62099C11.4229 7.63596 11.418 7.65121 11.4139 7.66669C11.3856 7.74734 11.3547 7.82798 11.3238 7.90863C11.3171 7.92342 11.3117 7.93955 11.305 7.95567C11.2727 8.03363 11.2391 8.11025 11.2042 8.18686C11.1961 8.20433 11.1894 8.22181 11.1813 8.23793C11.1464 8.31186 11.1101 8.38444 11.0725 8.45702C11.0631 8.47584 11.0536 8.49466 11.0429 8.51347C11.0066 8.58337 10.9663 8.64788 10.9273 8.71912L10.8924 8.7796C10.844 8.85891 10.7929 8.93821 10.7405 9.01616C10.688 9.09412 10.6558 9.13713 10.6061 9.19627L10.5698 9.24735C10.5241 9.30918 10.4757 9.36832 10.4273 9.4288L10.3937 9.47047C10.344 9.53095 10.2915 9.59009 10.2391 9.64789C10.2284 9.65999 10.219 9.67208 10.2082 9.68284C10.1531 9.74332 10.098 9.80112 10.0415 9.85757L10.0147 9.88579C9.95552 9.94359 9.89503 10.0014 9.8332 10.0578L9.81573 10.0726C9.76869 10.1156 9.72299 10.1586 9.6746 10.199L24.4301 8.17342ZM8.97298 20.9679H11.3413L8.61008 10.9517C8.61008 10.9382 8.60336 10.9248 8.60067 10.9127L8.53212 10.9449C8.47164 10.9759 8.41115 11.0041 8.34932 11.0337L8.2512 11.0767C8.16921 11.113 8.08722 11.1466 8.00255 11.1788L7.96894 11.1923L7.94744 11.2003L7.91652 11.2124L7.88427 11.2245L7.75926 11.2675L7.68668 11.2904L7.6383 11.3052L7.53883 11.3347L7.41921 11.3683L7.35604 11.3845L7.31034 11.3952C7.25926 11.4087 7.20819 11.4194 7.15577 11.4302H7.14098L7.09125 11.4409H7.07647C6.99716 11.457 6.91652 11.4705 6.83722 11.4839H6.8305H6.78211C6.71222 11.4947 6.64098 11.5041 6.57108 11.5108L6.47834 11.5202L6.29689 11.5337H6.20952C6.12081 11.5337 6.0321 11.5404 5.9407 11.5404C5.84931 11.5404 5.73372 11.5404 5.63156 11.5323C5.58183 11.5323 5.53344 11.5242 5.48506 11.5202C5.43667 11.5162 5.3829 11.5202 5.33183 11.5081C5.28075 11.496 5.19742 11.492 5.12753 11.4826L5.04419 11.4705C4.95951 11.457 4.87618 11.4423 4.79285 11.4261H4.77134C4.31908 11.3352 3.8795 11.1899 3.46219 10.9933L8.97298 20.9679Z" fill="black"/>
<path d="M9.80859 5.7809C9.80886 6.54506 9.58255 7.29215 9.15828 7.92772C8.73401 8.56328 8.13082 9.05879 7.42497 9.35159C6.71913 9.64439 5.94232 9.72134 5.19274 9.57272C4.44317 9.42409 3.75449 9.05656 3.21377 8.51659C2.67305 7.97662 2.30456 7.28845 2.15489 6.53909C2.00522 5.78972 2.08109 5.0128 2.37291 4.30655C2.66473 3.6003 3.1594 2.99642 3.79437 2.57127C4.42935 2.14611 5.17612 1.91877 5.94029 1.91797C6.9653 1.91797 7.9484 2.32478 8.67369 3.04907C9.39899 3.77335 9.80717 4.75589 9.80859 5.7809ZM3.15667 5.7809C3.1564 6.33279 3.31989 6.87236 3.62642 7.3313C3.93296 7.79024 4.36876 8.14792 4.87868 8.35906C5.38859 8.5702 5.94968 8.62531 6.49093 8.51741C7.03217 8.40951 7.52924 8.14346 7.91921 7.75293C8.30918 7.36239 8.57451 6.86494 8.68163 6.32354C8.78874 5.78214 8.73282 5.22112 8.52094 4.71152C8.30907 4.20191 7.95076 3.76662 7.49137 3.46075C7.03199 3.15488 6.49218 2.99218 5.94029 2.99324C5.20187 2.99502 4.49427 3.28942 3.97251 3.81194C3.45075 4.33445 3.15738 5.04248 3.15667 5.7809Z" fill="black"/>
<path d="M26.3709 5.24219H29.4624C29.605 5.24219 29.7417 5.29883 29.8425 5.39966C29.9434 5.50048 30 5.63723 30 5.77983C30 5.92242 29.9434 6.05917 29.8425 6.15999C29.7417 6.26082 29.605 6.31746 29.4624 6.31746H26.3709C26.2284 6.31746 26.0916 6.26082 25.9908 6.15999C25.8899 6.05917 25.8333 5.92242 25.8333 5.77983C25.8333 5.63723 25.8899 5.50048 25.9908 5.39966C26.0916 5.29883 26.2284 5.24219 26.3709 5.24219Z" fill="black"/>
<path d="M26.3713 6.7207H28.1186C28.2612 6.7207 28.398 6.77735 28.4988 6.87817C28.5996 6.979 28.6562 7.11575 28.6562 7.25834C28.6562 7.40093 28.5996 7.53768 28.4988 7.63851C28.398 7.73934 28.2612 7.79598 28.1186 7.79598H26.3713C26.2287 7.79598 26.0919 7.73934 25.9911 7.63851C25.8903 7.53768 25.8337 7.40093 25.8337 7.25834C25.8337 7.11575 25.8903 6.979 25.9911 6.87817C26.0919 6.77735 26.2287 6.7207 26.3713 6.7207Z" fill="black"/>
<path d="M26.3713 3.76367H28.1186C28.2612 3.76367 28.398 3.82032 28.4988 3.92114C28.5996 4.02197 28.6562 4.15872 28.6562 4.30131C28.6562 4.4439 28.5996 4.58065 28.4988 4.68148C28.398 4.7823 28.2612 4.83895 28.1186 4.83895H26.3713C26.2287 4.83895 26.0919 4.7823 25.9911 4.68148C25.8903 4.58065 25.8337 4.4439 25.8337 4.30131C25.8337 4.15872 25.8903 4.02197 25.9911 3.92114C26.0919 3.82032 26.2287 3.76367 26.3713 3.76367Z" fill="black"/>
</svg>
