<svg width="23" height="22" viewBox="0 0 23 22" fill="none" xmlns="http://www.w3.org/2000/svg">
<path d="M21.7997 11.3272H21.5759V3.89076L21.5724 3.68604H21.559C21.3687 1.60367 19.6282 0 17.5139 0C15.872 0 14.3759 1.01054 13.755 2.52569C13.5217 2.53047 13.2893 2.5797 13.0682 2.6739C12.6139 2.86748 12.2622 3.22639 12.0778 3.68473L12.0677 3.70997C12.0144 3.84238 12.0158 3.98769 12.0718 4.11896C12.1277 4.25034 12.2315 4.352 12.3639 4.40527L14.8022 5.38635C14.8673 5.41256 14.9347 5.42496 15.0009 5.42496C15.2128 5.42496 15.4137 5.29823 15.4975 5.08982L15.5078 5.06446C15.6921 4.60635 15.687 4.10389 15.4933 3.64971C15.4065 3.44578 15.2861 3.26272 15.1385 3.10603C15.5269 2.14115 16.4667 1.50083 17.5139 1.50083C18.9261 1.50083 20.075 2.64969 20.075 4.06188V11.3272H8.17527C8.0681 11.1262 7.85645 10.9889 7.61307 10.9889H4.79322C4.54995 10.9889 4.33829 11.1262 4.23113 11.3272H0.775684C0.569256 11.3272 0.374596 11.4077 0.227123 11.5542C0.0807295 11.7007 0 11.8952 0 12.1022C0 12.5296 0.347989 12.8773 0.775741 12.8773H1.32157V19.6067C1.32157 20.1262 1.74444 20.5488 2.26435 20.5488H3.01956V21.117C3.01956 21.2989 3.16755 21.4469 3.34942 21.4469H3.99701C4.17888 21.4469 4.32687 21.2989 4.32687 21.117V20.5488H18.6651V21.117C18.6651 21.2989 18.8132 21.4469 18.9951 21.4469H19.6427C19.8245 21.4469 19.9726 21.2989 19.9726 21.117V20.5488H20.642C21.1619 20.5488 21.5849 20.1261 21.5849 19.6067V12.8773H21.7998C22.0067 12.8773 22.2012 12.7966 22.3478 12.6501C22.4941 12.5038 22.5747 12.3092 22.5747 12.1022C22.5746 11.6749 22.2271 11.3272 21.7997 11.3272ZM15.1279 4.91198L15.1177 4.93728C15.0921 5.00124 15.0188 5.03234 14.9551 5.0067L12.5168 4.02561C12.4858 4.01316 12.4614 3.98934 12.4484 3.95858C12.4353 3.92788 12.4349 3.89389 12.4476 3.86262L12.4577 3.83732C12.7539 3.10109 13.5941 2.74309 14.33 3.0394C14.6867 3.18284 14.9661 3.45664 15.1169 3.81037C15.2675 4.16393 15.2715 4.55513 15.1279 4.91198ZM17.5139 1.09161C16.3441 1.09161 15.2899 1.78071 14.8112 2.83133C14.7088 2.76407 14.5992 2.70642 14.4829 2.65964C14.3846 2.62007 14.284 2.58976 14.1826 2.56759C14.7676 1.26819 16.0788 0.409389 17.514 0.409389C19.4743 0.409389 21.0773 1.94256 21.1634 3.8998L21.1666 3.95193V11.327H20.4843V4.062C20.4843 2.42415 19.1519 1.09161 17.5139 1.09161ZM4.56593 11.6256C4.56593 11.5002 4.66792 11.3982 4.79328 11.3982H7.61312C7.73854 11.3982 7.84059 11.5002 7.84059 11.6256V16.3954H4.56593V11.6256ZM4.56593 16.8048H7.84059V17.0265C7.84059 17.1519 7.73854 17.2539 7.61312 17.2539H4.79328C4.66792 17.2539 4.56593 17.1519 4.56593 17.0265V16.8048ZM1.32157 12.4679H0.775741C0.573747 12.4679 0.409389 12.3039 0.409389 12.1022C0.409389 12.0046 0.44748 11.9129 0.516213 11.8442C0.586084 11.7748 0.678241 11.7366 0.775741 11.7366H4.1566V12.4679L1.32157 12.4679ZM4.1566 12.8773V14.5705H1.73085V12.8773H4.1566ZM3.91748 21.0375H3.42884V20.5489H3.91748V21.0375ZM19.5631 21.0375H19.0744V20.5489H19.5631V21.0375ZM21.1754 19.6067C21.1754 19.9005 20.9361 20.1395 20.6419 20.1395H2.26435C1.9702 20.1395 1.73085 19.9005 1.73085 19.6067V14.9798H4.1566V17.0265C4.1566 17.3776 4.44222 17.6632 4.79328 17.6632H7.61312C7.96429 17.6632 8.24992 17.3776 8.24992 17.0265V14.9798H21.1754V19.6067ZM21.1754 14.5705H8.24992V12.8773H21.1754V14.5705ZM22.0582 12.3607C21.9891 12.4299 21.8973 12.4679 21.7997 12.4679H21.5848H8.24992V11.7366H21.7997C22.0013 11.7366 22.1653 11.9006 22.1653 12.1022C22.1653 12.1999 22.1272 12.2916 22.0582 12.3607Z" fill="black"/>
<path d="M12.1657 7.89985L12.5469 8.04883L13.4512 5.73479L13.07 5.58581L12.1657 7.89985Z" fill="black"/>
<path d="M14.2602 6.36382L13.8789 6.21484L13.1858 7.98872L13.5672 8.1377L14.2602 6.36382Z" fill="black"/>
<path d="M11.361 7.27485L11.7422 7.42383L12.4354 5.64995L12.0542 5.50097L11.361 7.27485Z" fill="black"/>
</svg>
