<svg width="30" height="23" viewBox="0 0 30 23" fill="none" xmlns="http://www.w3.org/2000/svg">
<path d="M0.161705 6.15068C0.161707 5.33817 0.333027 4.53478 0.664486 3.79295C0.995943 3.05112 1.48009 2.38752 2.08534 1.84543C2.69058 1.30335 3.40333 0.894975 4.17706 0.646952C4.95079 0.398928 5.76812 0.316831 6.57573 0.406019C6.61739 0.406019 6.65906 0.415428 6.70073 0.422148L25.0275 2.62915C25.1588 2.64469 25.2799 2.70813 25.3674 2.80732C25.455 2.90651 25.5028 3.0345 25.5019 3.16679V9.0136C25.5031 9.14446 25.4566 9.27127 25.3709 9.37025C25.2853 9.46922 25.1665 9.53358 25.0369 9.55124L9.80424 11.6359L9.85532 11.8228L11.3647 13.0056C11.4529 13.0746 11.5173 13.1694 11.549 13.2767C11.5807 13.3841 11.5781 13.4987 11.5416 13.6045C11.505 13.7103 11.4363 13.8021 11.3451 13.867C11.2539 13.9319 11.1447 13.9667 11.0327 13.9666C10.9123 13.9663 10.7953 13.9256 10.7008 13.851L10.3365 13.5647L12.5664 21.7422C12.5881 21.8219 12.5911 21.9056 12.5752 21.9867C12.5593 22.0678 12.5249 22.1441 12.4747 22.2098C12.4245 22.2755 12.3599 22.3287 12.2858 22.3653C12.2117 22.4019 12.1302 22.4209 12.0475 22.4209H8.66579C8.5698 22.421 8.47555 22.3953 8.39282 22.3466C8.3101 22.298 8.24192 22.228 8.19536 22.1441L0.992353 9.13591L0.985636 9.11978C0.445547 8.22366 0.160639 7.19697 0.161705 6.15068ZM1.23698 6.15068C1.23893 7.26075 1.63258 8.33451 2.34859 9.1828C3.06459 10.0311 4.05701 10.5995 5.15099 10.7878L5.26523 10.8053L5.39964 10.8228L5.56497 10.8389L5.66712 10.8456C5.75986 10.8456 5.85126 10.855 5.944 10.855C6.03675 10.855 6.16175 10.855 6.27062 10.8429H6.34589C6.45341 10.8348 6.56094 10.8228 6.66712 10.8066C6.73971 10.7945 6.81094 10.7824 6.88084 10.7676L6.91982 10.7596L7.10127 10.7179L7.14293 10.7072C7.20476 10.691 7.26525 10.6749 7.32573 10.6561H7.33783L7.36202 10.648C7.4252 10.6279 7.48971 10.6064 7.55289 10.5835L7.57439 10.5754L7.61068 10.562C7.68998 10.5311 7.76928 10.4988 7.84724 10.4639L7.91848 10.4316C7.98568 10.3994 8.05289 10.3671 8.12009 10.3322C8.2088 10.2851 8.29617 10.2367 8.38085 10.1856C8.49644 10.1158 8.60666 10.0391 8.71553 9.95984L8.78811 9.90608L8.92252 9.80393L8.97628 9.75957C9.11808 9.63656 9.25271 9.50552 9.37951 9.3671C9.39833 9.34828 9.4158 9.32946 9.43327 9.3093C9.45075 9.28914 9.50182 9.23134 9.53543 9.19236L9.60263 9.11172C9.63086 9.07543 9.66043 9.03914 9.68865 9.0015C9.71688 8.96387 9.74376 8.92623 9.77064 8.8886L9.83247 8.80123C9.87951 8.73134 9.92521 8.66682 9.96688 8.58887C9.97529 8.57589 9.98291 8.56242 9.98973 8.54854C10.0274 8.48537 10.0637 8.42086 10.0986 8.35634L10.1241 8.30661C10.1577 8.24075 10.19 8.1722 10.2209 8.10768C10.2209 8.09424 10.2317 8.0808 10.2384 8.06736C10.2733 7.98806 10.3069 7.90875 10.3378 7.82811C10.4045 7.65251 10.4601 7.47295 10.5045 7.29047V7.28241C10.5247 7.20042 10.5422 7.11843 10.5583 7.03509C10.5583 7.01762 10.565 7.00015 10.5677 6.98267C10.5793 6.91278 10.5901 6.84289 10.5999 6.77299C10.5999 6.75014 10.6067 6.7273 10.608 6.70445C10.6161 6.63724 10.6228 6.57004 10.6268 6.50149C10.6268 6.47864 10.6268 6.45444 10.6268 6.43159C10.6268 6.34288 10.6349 6.25283 10.6349 6.16278C10.6349 6.07272 10.6349 6.00686 10.6349 5.93025V5.86707C10.6349 5.81062 10.6268 5.75417 10.6215 5.69772C10.6215 5.67621 10.6215 5.65471 10.6147 5.6332C10.608 5.57675 10.6013 5.5203 10.5932 5.46519C10.5932 5.44637 10.5865 5.4289 10.5838 5.41143C10.5744 5.35094 10.5637 5.29046 10.5516 5.23132C10.5487 5.21935 10.5464 5.20724 10.5448 5.19503C10.5301 5.12782 10.5153 5.06062 10.4978 4.99341V4.984C10.2957 4.20953 9.90003 3.49915 9.34797 2.91959C8.79592 2.34003 8.1056 1.91031 7.34186 1.67081C7.276 1.65065 7.20745 1.63183 7.14428 1.6157L7.08111 1.59957C7.03541 1.58748 6.98836 1.57673 6.9467 1.56732L6.83917 1.54581L6.74105 1.52834L6.60664 1.50549C6.39457 1.47666 6.18087 1.46139 5.96685 1.45979H5.95341C4.70597 1.45658 3.50834 1.94895 2.62387 2.82862C1.73941 3.7083 1.24054 4.90324 1.23698 6.15068ZM24.432 8.54451V3.63991L9.84994 1.88318C10.6757 2.6399 11.2632 3.62069 11.5408 4.70578L11.5489 4.73535C11.569 4.81599 11.5879 4.89798 11.6053 4.97997C11.6053 5.00282 11.6134 5.02567 11.6188 5.04987C11.6322 5.11976 11.6457 5.18427 11.6564 5.26223C11.6564 5.29987 11.6658 5.3375 11.6712 5.37514C11.6793 5.43428 11.6873 5.49342 11.694 5.55256C11.7008 5.6117 11.7034 5.66277 11.7075 5.71922C11.7115 5.77568 11.7155 5.80659 11.7169 5.85363C11.7169 5.95444 11.725 6.05525 11.725 6.1574C11.725 6.25955 11.725 6.36573 11.7169 6.46789C11.7169 6.49074 11.7169 6.51224 11.7169 6.53509C11.7169 6.61708 11.7061 6.69907 11.6967 6.77972L11.6887 6.84423C11.6793 6.92622 11.6685 7.00821 11.6551 7.08886C11.6551 7.10767 11.6483 7.12649 11.6443 7.14531C11.63 7.23043 11.6138 7.31377 11.5959 7.39531L11.5838 7.44504C11.565 7.52972 11.5435 7.6144 11.5207 7.69773L11.5086 7.74343C11.4844 7.82676 11.4588 7.9101 11.4306 7.99209C11.4249 8.00705 11.4199 8.0223 11.4158 8.03779C11.3876 8.11843 11.3567 8.19908 11.3258 8.27972C11.319 8.29451 11.3137 8.31064 11.3069 8.32677C11.2747 8.40473 11.2411 8.48134 11.2061 8.55795C11.1981 8.57543 11.1913 8.5929 11.1833 8.60903C11.1483 8.68295 11.112 8.75553 11.0744 8.82812C11.065 8.84693 11.0556 8.86575 11.0448 8.88457C11.0086 8.95446 10.9682 9.01898 10.9293 9.09021L10.8943 9.1507C10.8459 9.23 10.7948 9.3093 10.7424 9.38726C10.69 9.46522 10.6577 9.50823 10.608 9.56737L10.5717 9.61844C10.526 9.68027 10.4776 9.73941 10.4292 9.7999L10.3956 9.84156C10.3459 9.90205 10.2935 9.96119 10.2411 10.019C10.2303 10.0311 10.2209 10.0432 10.2102 10.0539C10.1551 10.1144 10.0999 10.1722 10.0435 10.2287L10.0166 10.2569C9.95747 10.3147 9.89699 10.3725 9.83516 10.4289L9.81768 10.4437C9.77064 10.4867 9.72494 10.5297 9.67655 10.5701L24.432 8.54451ZM8.97494 21.3389H11.3432L8.61203 11.3228C8.61203 11.3093 8.60531 11.2959 8.60262 11.2838L8.53407 11.316C8.47359 11.3469 8.4131 11.3752 8.35127 11.4047L8.25316 11.4478C8.17117 11.484 8.08918 11.5176 8.0045 11.5499L7.9709 11.5633L7.94939 11.5714L7.91848 11.5835L7.88622 11.5956L7.76122 11.6386L7.68864 11.6615L7.64025 11.6763L7.54079 11.7058L7.42116 11.7394L7.35799 11.7556L7.31229 11.7663C7.26122 11.7797 7.21014 11.7905 7.15772 11.8013H7.14293L7.0932 11.812H7.07842C6.99912 11.8281 6.91847 11.8416 6.83917 11.855H6.83245H6.78406C6.71417 11.8658 6.64293 11.8752 6.57304 11.8819L6.4803 11.8913L6.29884 11.9047H6.21148C6.12277 11.9047 6.03406 11.9115 5.94266 11.9115C5.85126 11.9115 5.73567 11.9115 5.63352 11.9034C5.58379 11.9034 5.5354 11.8953 5.48701 11.8913C5.43862 11.8873 5.38486 11.8913 5.33378 11.8792C5.28271 11.8671 5.19937 11.8631 5.12948 11.8537L5.04615 11.8416C4.96147 11.8281 4.87813 11.8133 4.7948 11.7972H4.77329C4.32104 11.7063 3.88145 11.561 3.46415 11.3644L8.97494 21.3389Z" fill="white"/>
<path d="M9.80859 6.15004C9.80886 6.9142 9.58255 7.66129 9.15828 8.29686C8.73401 8.93242 8.13082 9.42793 7.42497 9.72073C6.71913 10.0135 5.94232 10.0905 5.19274 9.94186C4.44317 9.79323 3.75449 9.4257 3.21377 8.88573C2.67305 8.34576 2.30456 7.65759 2.15489 6.90823C2.00522 6.15886 2.08109 5.38194 2.37291 4.67569C2.66473 3.96944 3.1594 3.36557 3.79437 2.94041C4.42935 2.51525 5.17612 2.28791 5.94029 2.28711C6.9653 2.28711 7.9484 2.69392 8.67369 3.41821C9.39899 4.14249 9.80717 5.12503 9.80859 6.15004ZM3.15667 6.15004C3.1564 6.70193 3.31989 7.2415 3.62642 7.70044C3.93296 8.15938 4.36876 8.51706 4.87868 8.7282C5.38859 8.93934 5.94968 8.99445 6.49093 8.88655C7.03217 8.77865 7.52924 8.5126 7.91921 8.12207C8.30918 7.73153 8.57451 7.23408 8.68163 6.69268C8.78874 6.15128 8.73282 5.59027 8.52094 5.08066C8.30907 4.57105 7.95076 4.13576 7.49137 3.82989C7.03199 3.52402 6.49218 3.36132 5.94029 3.36239C5.20187 3.36416 4.49427 3.65856 3.97251 4.18108C3.45075 4.70359 3.15738 5.41162 3.15667 6.15004Z" fill="white"/>
<path d="M26.3709 5.61328H29.4624C29.605 5.61328 29.7417 5.66992 29.8425 5.77075C29.9434 5.87158 30 6.00833 30 6.15092C30 6.29351 29.9434 6.43026 29.8425 6.53109C29.7417 6.63191 29.605 6.68856 29.4624 6.68856H26.3709C26.2284 6.68856 26.0916 6.63191 25.9908 6.53109C25.8899 6.43026 25.8333 6.29351 25.8333 6.15092C25.8333 6.00833 25.8899 5.87158 25.9908 5.77075C26.0916 5.66992 26.2284 5.61328 26.3709 5.61328Z" fill="white"/>
<path d="M26.3713 7.0918H28.1186C28.2612 7.0918 28.398 7.14844 28.4988 7.24927C28.5996 7.35009 28.6562 7.48684 28.6562 7.62943C28.6562 7.77203 28.5996 7.90878 28.4988 8.0096C28.398 8.11043 28.2612 8.16707 28.1186 8.16707H26.3713C26.2287 8.16707 26.0919 8.11043 25.9911 8.0096C25.8903 7.90878 25.8337 7.77203 25.8337 7.62943C25.8337 7.48684 25.8903 7.35009 25.9911 7.24927C26.0919 7.14844 26.2287 7.0918 26.3713 7.0918Z" fill="white"/>
<path d="M26.3713 4.13477H28.1186C28.2612 4.13477 28.398 4.19141 28.4988 4.29224C28.5996 4.39306 28.6562 4.52981 28.6562 4.6724C28.6562 4.81499 28.5996 4.95174 28.4988 5.05257C28.398 5.1534 28.2612 5.21004 28.1186 5.21004H26.3713C26.2287 5.21004 26.0919 5.1534 25.9911 5.05257C25.8903 4.95174 25.8337 4.81499 25.8337 4.6724C25.8337 4.52981 25.8903 4.39306 25.9911 4.29224C26.0919 4.19141 26.2287 4.13477 26.3713 4.13477Z" fill="white"/>
</svg>
