<svg width="23" height="22" viewBox="0 0 23 22" fill="none" xmlns="http://www.w3.org/2000/svg">
<path d="M21.7997 11.6983H21.5759V4.26185L21.5724 4.05713H21.559C21.3687 1.97477 19.6282 0.371094 17.5139 0.371094C15.872 0.371094 14.3759 1.38163 13.755 2.89679C13.5217 2.90156 13.2893 2.9508 13.0682 3.045C12.6139 3.23858 12.2622 3.59748 12.0778 4.05582L12.0677 4.08106C12.0144 4.21347 12.0158 4.35878 12.0718 4.49005C12.1277 4.62144 12.2315 4.72309 12.3639 4.77636L14.8022 5.75745C14.8673 5.78366 14.9347 5.79605 15.0009 5.79605C15.2128 5.79605 15.4137 5.66933 15.4975 5.46091L15.5078 5.43555C15.6921 4.97744 15.687 4.47499 15.4933 4.0208C15.4065 3.81687 15.2861 3.63381 15.1385 3.47713C15.5269 2.51224 16.4667 1.87192 17.5139 1.87192C18.9261 1.87192 20.075 3.02078 20.075 4.43297V11.6983H8.17527C8.0681 11.4973 7.85645 11.36 7.61307 11.36H4.79322C4.54995 11.36 4.33829 11.4973 4.23113 11.6983H0.775684C0.569256 11.6983 0.374596 11.7788 0.227123 11.9253C0.0807295 12.0718 0 12.2663 0 12.4733C0 12.9007 0.347989 13.2484 0.775741 13.2484H1.32157V19.9778C1.32157 20.4973 1.74444 20.9199 2.26435 20.9199H3.01956V21.4881C3.01956 21.6699 3.16755 21.818 3.34942 21.818H3.99701C4.17888 21.818 4.32687 21.6699 4.32687 21.4881V20.9199H18.6651V21.4881C18.6651 21.6699 18.8132 21.818 18.9951 21.818H19.6427C19.8245 21.818 19.9726 21.6699 19.9726 21.4881V20.9199H20.642C21.1619 20.9199 21.5849 20.4972 21.5849 19.9778V13.2484H21.7998C22.0067 13.2484 22.2012 13.1677 22.3478 13.0212C22.4941 12.8749 22.5747 12.6803 22.5747 12.4733C22.5746 12.046 22.2271 11.6983 21.7997 11.6983ZM15.1279 5.28308L15.1177 5.30838C15.0921 5.37234 15.0188 5.40343 14.9551 5.37779L12.5168 4.3967C12.4858 4.38425 12.4614 4.36043 12.4484 4.32968C12.4353 4.29898 12.4349 4.26498 12.4476 4.23371L12.4577 4.20841C12.7539 3.47218 13.5941 3.11419 14.33 3.4105C14.6867 3.55393 14.9661 3.82773 15.1169 4.18146C15.2675 4.53502 15.2715 4.92622 15.1279 5.28308ZM17.5139 1.4627C16.3441 1.4627 15.2899 2.1518 14.8112 3.20242C14.7088 3.13517 14.5992 3.07752 14.4829 3.03073C14.3846 2.99116 14.284 2.96086 14.1826 2.93869C14.7676 1.63928 16.0788 0.780483 17.514 0.780483C19.4743 0.780483 21.0773 2.31366 21.1634 4.27089L21.1666 4.32302V11.6981H20.4843V4.43309C20.4843 2.79525 19.1519 1.4627 17.5139 1.4627ZM4.56593 11.9967C4.56593 11.8713 4.66792 11.7693 4.79328 11.7693H7.61312C7.73854 11.7693 7.84059 11.8713 7.84059 11.9967V16.7665H4.56593V11.9967ZM4.56593 17.1759H7.84059V17.3976C7.84059 17.523 7.73854 17.625 7.61312 17.625H4.79328C4.66792 17.625 4.56593 17.523 4.56593 17.3976V17.1759ZM1.32157 12.839H0.775741C0.573747 12.839 0.409389 12.675 0.409389 12.4733C0.409389 12.3757 0.44748 12.284 0.516213 12.2153C0.586084 12.1459 0.678241 12.1077 0.775741 12.1077H4.1566V12.839L1.32157 12.839ZM4.1566 13.2484V14.9416H1.73085V13.2484H4.1566ZM3.91748 21.4086H3.42884V20.92H3.91748V21.4086ZM19.5631 21.4086H19.0744V20.92H19.5631V21.4086ZM21.1754 19.9778C21.1754 20.2716 20.9361 20.5106 20.6419 20.5106H2.26435C1.9702 20.5106 1.73085 20.2716 1.73085 19.9778V15.3509H4.1566V17.3976C4.1566 17.7487 4.44222 18.0343 4.79328 18.0343H7.61312C7.96429 18.0343 8.24992 17.7487 8.24992 17.3976V15.3509H21.1754V19.9778ZM21.1754 14.9416H8.24992V13.2484H21.1754V14.9416ZM22.0582 12.7318C21.9891 12.801 21.8973 12.839 21.7997 12.839H21.5848H8.24992V12.1077H21.7997C22.0013 12.1077 22.1653 12.2717 22.1653 12.4733C22.1653 12.571 22.1272 12.6627 22.0582 12.7318Z" fill="white"/>
<path d="M12.1637 8.27095L12.5449 8.41992L13.4493 6.10588L13.0681 5.95691L12.1637 8.27095Z" fill="white"/>
<path d="M14.2583 6.73491L13.877 6.58594L13.1839 8.35982L13.5652 8.50879L14.2583 6.73491Z" fill="white"/>
<path d="M11.359 7.64595L11.7402 7.79492L12.4335 6.02104L12.0523 5.87207L11.359 7.64595Z" fill="white"/>
</svg>
