<svg width="51" height="35" viewBox="0 0 51 35" fill="none" xmlns="http://www.w3.org/2000/svg">
<path d="M45.7495 4.98982C45.6571 4.86696 45.5413 4.76335 45.4085 4.68493C45.2758 4.60651 45.1288 4.55481 44.9759 4.53278C44.8231 4.51075 44.6673 4.51882 44.5176 4.55654C44.3679 4.59426 44.2271 4.66088 44.1034 4.7526L25.138 18.7993C25.0702 18.8498 24.9877 18.877 24.9029 18.877C24.8181 18.877 24.7355 18.8498 24.6677 18.7993L6.07468 4.69038C5.95192 4.59743 5.81192 4.52939 5.66267 4.49013C5.51341 4.45087 5.35782 4.44116 5.20479 4.46156C5.05175 4.48197 4.90426 4.53208 4.77075 4.60904C4.63723 4.686 4.5203 4.7883 4.42662 4.9101C4.33295 5.0319 4.26437 5.17082 4.22481 5.31892C4.18524 5.46701 4.17546 5.6214 4.19602 5.77325C4.21658 5.9251 4.26709 6.07144 4.34465 6.20392C4.42221 6.33641 4.52531 6.45243 4.64806 6.54538L19.2669 17.6404L4.80875 28.4515C4.6842 28.5437 4.57916 28.6593 4.49964 28.7917C4.42012 28.9242 4.36767 29.0709 4.34529 29.2235C4.32291 29.3761 4.33103 29.5315 4.36919 29.681C4.40736 29.8304 4.47482 29.971 4.56772 30.0945C4.66062 30.2181 4.77714 30.3224 4.91063 30.4013C5.04413 30.4802 5.19198 30.5322 5.34574 30.5544C5.49951 30.5766 5.65617 30.5686 5.8068 30.5307C5.95742 30.4928 6.09905 30.4259 6.22361 30.3337L21.207 19.1104L23.2372 20.6659C23.7105 21.0255 24.2891 21.2222 24.8852 21.2264C25.4813 21.2307 26.0626 21.0421 26.5411 20.6893L28.6732 19.1104L43.8329 30.3337C43.9567 30.4254 44.0975 30.492 44.2472 30.5297C44.3969 30.5673 44.5526 30.5754 44.7055 30.5534C44.8583 30.5313 45.0053 30.4797 45.1381 30.4013C45.2708 30.3229 45.3866 30.2193 45.479 30.0965C45.5714 29.9737 45.6385 29.834 45.6765 29.6854C45.7145 29.5369 45.7226 29.3824 45.7004 29.2307C45.6782 29.079 45.6261 28.9332 45.5471 28.8015C45.4681 28.6698 45.3637 28.5548 45.2399 28.4632L30.6367 17.6365L45.5104 6.61149C45.7571 6.42664 45.9205 6.15283 45.9652 5.84933C46.01 5.54582 45.9325 5.23704 45.7495 4.98982Z" fill="#D7A469"/>
<path d="M44.2878 0H5.87891C4.31972 0 2.8244 0.614582 1.72189 1.70854C0.619383 2.80251 0 4.28624 0 5.83333L0 29.1667C0 30.7138 0.619383 32.1975 1.72189 33.2915C2.8244 34.3854 4.31972 35 5.87891 35H44.2878C45.8469 35 47.3423 34.3854 48.4448 33.2915C49.5473 32.1975 50.1667 30.7138 50.1667 29.1667V5.83333C50.1667 4.28624 49.5473 2.80251 48.4448 1.70854C47.3423 0.614582 45.8469 0 44.2878 0ZM47.8151 29.1667C47.8151 30.0949 47.4435 30.9852 46.782 31.6415C46.1205 32.2979 45.2233 32.6667 44.2878 32.6667H5.87891C4.9434 32.6667 4.0462 32.2979 3.3847 31.6415C2.72319 30.9852 2.35156 30.0949 2.35156 29.1667V5.83333C2.35156 4.90508 2.72319 4.01484 3.3847 3.35846C4.0462 2.70208 4.9434 2.33333 5.87891 2.33333H44.2878C45.2233 2.33333 46.1205 2.70208 46.782 3.35846C47.4435 4.01484 47.8151 4.90508 47.8151 5.83333V29.1667Z" fill="#D7A469"/>
</svg>
