<svg width="80" height="81" viewBox="0 0 80 81" fill="none" xmlns="http://www.w3.org/2000/svg">
<circle cx="40" cy="40.8496" r="39" fill="#1C1C1C" stroke="white" stroke-width="2"/>
<path d="M58.2141 30.1267C58.1349 30.0214 58.0356 29.9326 57.9219 29.8654C57.8081 29.7982 57.6821 29.7539 57.5511 29.735C57.4201 29.7161 57.2866 29.723 57.1582 29.7554C57.0299 29.7877 56.9092 29.8448 56.8032 29.9234L40.5471 41.9634C40.489 42.0067 40.4183 42.0301 40.3456 42.0301C40.2729 42.0301 40.2022 42.0067 40.144 41.9634L24.2071 29.8701C24.1019 29.7904 23.9819 29.7321 23.854 29.6984C23.7261 29.6648 23.5927 29.6565 23.4615 29.6739C23.3304 29.6914 23.2039 29.7344 23.0895 29.8004C22.975 29.8663 22.8748 29.954 22.7945 30.0584C22.7142 30.1628 22.6555 30.2819 22.6215 30.4088C22.5876 30.5358 22.5792 30.6681 22.5969 30.7982C22.6145 30.9284 22.6578 31.0538 22.7243 31.1674C22.7907 31.281 22.8791 31.3804 22.9843 31.4601L35.5148 40.9701L23.1221 50.2367C23.0153 50.3158 22.9253 50.4149 22.8571 50.5284C22.789 50.6419 22.744 50.7677 22.7248 50.8984C22.7056 51.0292 22.7126 51.1625 22.7453 51.2906C22.778 51.4187 22.8358 51.5391 22.9155 51.6451C22.9951 51.751 23.095 51.8403 23.2094 51.908C23.3238 51.9756 23.4505 52.0202 23.5823 52.0393C23.7141 52.0583 23.8484 52.0514 23.9775 52.0189C24.1066 51.9865 24.228 51.9291 24.3348 51.8501L37.1777 42.2301L38.9178 43.5634C39.3236 43.8716 39.8195 44.0402 40.3304 44.0438C40.8414 44.0475 41.3397 43.8858 41.7498 43.5834L43.5773 42.2301L56.5714 51.8501C56.6775 51.9286 56.7981 51.9857 56.9264 52.018C57.0548 52.0503 57.1883 52.0572 57.3193 52.0384C57.4503 52.0195 57.5763 51.9752 57.69 51.908C57.8038 51.8408 57.9031 51.752 57.9823 51.6467C58.0615 51.5415 58.119 51.4217 58.1516 51.2944C58.1841 51.1671 58.1911 51.0346 58.1721 50.9046C58.153 50.7746 58.1084 50.6496 58.0407 50.5367C57.9729 50.4239 57.8835 50.3253 57.7774 50.2467L45.2603 40.9667L58.0092 31.5167C58.2206 31.3583 58.3607 31.1236 58.399 30.8635C58.4374 30.6033 58.371 30.3386 58.2141 30.1267Z" fill="white"/>
<path d="M56.9609 25.8496H24.0391C22.7026 25.8496 21.4209 26.3764 20.4759 27.3141C19.5309 28.2518 19 29.5235 19 30.8496V50.8496C19 52.1757 19.5309 53.4475 20.4759 54.3851C21.4209 55.3228 22.7026 55.8496 24.0391 55.8496H56.9609C58.2974 55.8496 59.5791 55.3228 60.5241 54.3851C61.4691 53.4475 62 52.1757 62 50.8496V30.8496C62 29.5235 61.4691 28.2518 60.5241 27.3141C59.5791 26.3764 58.2974 25.8496 56.9609 25.8496ZM59.9844 50.8496C59.9844 51.6453 59.6658 52.4083 59.0988 52.9709C58.5318 53.5335 57.7628 53.8496 56.9609 53.8496H24.0391C23.2372 53.8496 22.4682 53.5335 21.9012 52.9709C21.3342 52.4083 21.0156 51.6453 21.0156 50.8496V30.8496C21.0156 30.054 21.3342 29.2909 21.9012 28.7283C22.4682 28.1657 23.2372 27.8496 24.0391 27.8496H56.9609C57.7628 27.8496 58.5318 28.1657 59.0988 28.7283C59.6658 29.2909 59.9844 30.054 59.9844 30.8496V50.8496Z" fill="white"/>
</svg>
