<svg width="60" height="60" viewBox="0 0 60 60" fill="none" xmlns="http://www.w3.org/2000/svg">
<circle cx="30" cy="30" r="30" fill="#D7A469"/>
<path d="M27.2148 20.6016C25.0859 23.668 24.0215 26.6074 24.0215 29.4199C24.0215 32.2324 25.2715 34.8887 27.7715 37.3887L22.498 42.6035L17.2539 37.3887C17.5469 32.7012 18.9629 28.1797 21.502 23.8242C22.4395 22.1836 23.5918 20.5918 24.959 19.0488L27.2148 20.6016ZM41.4824 20.6016C39.3535 23.668 38.2891 26.6074 38.2891 29.4199C38.2891 32.2324 39.5391 34.8887 42.0391 37.3887L36.7656 42.6035L31.5215 37.3887C31.8145 32.7012 33.2305 28.1797 35.7695 23.8242C36.707 22.1836 37.8594 20.5918 39.2266 19.0488L41.4824 20.6016Z" fill="white"/>
</svg>
