<svg width="79" height="79" viewBox="0 0 79 79" fill="none" xmlns="http://www.w3.org/2000/svg">
<path d="M39.5 77C60.2107 77 77 60.2107 77 39.5C77 18.7893 60.2107 2 39.5 2C18.7893 2 2 18.7893 2 39.5C2 60.2107 18.7893 77 39.5 77Z" stroke="#C7812F" stroke-width="4" stroke-miterlimit="10" stroke-linejoin="round"/>
<path d="M39.5 57C40.8807 57 42 55.8807 42 54.5C42 53.1193 40.8807 52 39.5 52C38.1193 52 37 53.1193 37 54.5C37 55.8807 38.1193 57 39.5 57Z" fill="#C7812F"/>
<path d="M32.4258 47.425C34.2508 45.625 36.7508 44.5 39.5008 44.5C42.2508 44.5 44.7508 45.625 46.5758 47.425" stroke="#C7812F" stroke-width="5" stroke-miterlimit="10"/>
<path d="M25.3496 40.35C28.9746 36.75 33.9746 34.5 39.4996 34.5C45.0246 34.5 50.0246 36.75 53.6496 40.35" stroke="#C7812F" stroke-width="5" stroke-miterlimit="10"/>
<path d="M18.2754 33.275C23.7004 27.85 31.2004 24.5 39.5004 24.5C47.8004 24.5 55.3004 27.85 60.7254 33.275" stroke="#C7812F" stroke-width="5" stroke-miterlimit="10"/>
</svg>
