<svg width="75" height="75" viewBox="0 0 75 75" fill="none" xmlns="http://www.w3.org/2000/svg">
<path d="M38 54.9583C41.4307 54.9583 47.1129 54.9154 53.6312 51.1416C60.1496 47.3679 62.2724 42.6721 62.9371 40.2491C62.9983 40.0308 63.0151 39.8025 62.9864 39.5776C62.9578 39.3528 62.8843 39.1359 62.7703 38.94C62.6564 38.744 62.5042 38.573 62.3229 38.4369C62.1416 38.3008 61.9349 38.2025 61.7149 38.1478C60.1496 37.7404 57.405 37.3759 53.8885 38.2121" stroke="#D7A469" stroke-width="1.71536" stroke-linecap="round" stroke-linejoin="round"/>
<path d="M22.1115 38.1905C18.595 37.3757 15.8504 37.7402 14.2851 38.1476C14.0651 38.2023 13.8584 38.3007 13.6771 38.4367C13.4958 38.5728 13.3436 38.7439 13.2297 38.9398C13.1157 39.1358 13.0422 39.3526 13.0136 39.5775C12.9849 39.8024 13.0017 40.0307 13.0629 40.249C13.7276 42.6719 15.8504 47.3892 22.3688 51.1415C28.8871 54.8939 34.5693 54.9582 38 54.9582" stroke="#D7A469" stroke-width="1.71536" stroke-linecap="round" stroke-linejoin="round"/>
<path d="M38.0006 54.9589C38.0006 54.9589 46.5774 50.2845 46.5774 37.8053C46.5774 28.0277 41.3027 23.0532 39.0299 21.3378C38.7316 21.1184 38.3709 21 38.0006 21C37.6303 21 37.2697 21.1184 36.9714 21.3378C34.6986 23.0532 29.4238 28.0277 29.4238 37.8053C29.4238 50.2845 38.0006 54.9589 38.0006 54.9589Z" stroke="#D7A469" stroke-width="1.71536" stroke-linecap="round" stroke-linejoin="round"/>
<path d="M38 54.9594C40.573 54.4019 47.4988 50.4994 51.6586 43.2949C55.8183 36.0904 54.7891 30.3654 53.9743 27.8567C53.8497 27.4532 53.5771 27.1118 53.2112 26.901C52.8453 26.6902 52.4132 26.6256 52.0016 26.7202C49.5397 27.2716 47.2367 28.3791 45.2688 29.958" stroke="#D7A469" stroke-width="1.71536" stroke-linecap="round" stroke-linejoin="round"/>
<path d="M30.731 29.958C28.7632 28.3791 26.4602 27.2716 23.9982 26.7202C23.5867 26.6256 23.1546 26.6902 22.7887 26.901C22.4228 27.1118 22.1502 27.4532 22.0256 27.8567C21.2108 30.3654 20.1816 36.1118 24.3413 43.2949C28.5011 50.478 35.4268 54.4019 37.9999 54.9594" stroke="#D7A469" stroke-width="1.71536" stroke-linecap="round" stroke-linejoin="round"/>
<circle cx="37.5" cy="37.5" r="35.5" stroke="#D7A469" stroke-width="4"/>
</svg>
