<svg width="75" height="75" viewBox="0 0 75 75" fill="none" xmlns="http://www.w3.org/2000/svg">
<circle cx="37.5" cy="37.5" r="35.5" stroke="#D7A469" stroke-width="4"/>
<path d="M31.5385 52.3074C39.5678 52.3074 46.0769 45.7983 46.0769 37.7689C46.0769 29.7396 39.5678 23.2305 31.5385 23.2305C23.5091 23.2305 17 29.7396 17 37.7689C17 45.7983 23.5091 52.3074 31.5385 52.3074Z" stroke="#D7A469" stroke-width="2.42308" stroke-miterlimit="10" stroke-linecap="round" stroke-linejoin="round"/>
<path d="M31.538 47.4608C36.8909 47.4608 41.2303 43.1214 41.2303 37.7685C41.2303 32.4156 36.8909 28.0762 31.538 28.0762C26.1851 28.0762 21.8457 32.4156 21.8457 37.7685C21.8457 43.1214 26.1851 47.4608 31.538 47.4608Z" stroke="#D7A469" stroke-width="2.42308" stroke-miterlimit="10" stroke-linecap="round" stroke-linejoin="round"/>
<path d="M49.3086 20V28.8846C49.3086 31.6308 49.9547 33.5692 51.0855 34.8615C52.5394 36.4769 53.1855 38.4154 53.024 40.5154L51.4086 52.3077C51.2471 53.9231 52.5394 55.5385 54.1547 55.5385C55.9317 55.5385 57.224 54.0846 56.9009 52.3077L55.2855 40.5154C55.124 38.4154 55.7701 36.3154 57.224 34.8615C58.3547 33.7308 59.0009 31.6308 59.0009 28.8846V20" stroke="#D7A469" stroke-width="2.42308" stroke-miterlimit="10" stroke-linecap="round" stroke-linejoin="round"/>
<path d="M54.1543 29.6923V20" stroke="#D7A469" stroke-width="2.42308" stroke-miterlimit="10" stroke-linecap="round" stroke-linejoin="round"/>
</svg>
