<svg width="75" height="75" viewBox="0 0 75 75" fill="none" xmlns="http://www.w3.org/2000/svg">
<path d="M31.1665 38.7046V37.9554H33.3027C34.0062 37.588 34.7481 37.0816 35.5456 36.3787C35.7879 36.1639 36.0063 35.99 36.2308 35.8064H31.1665V33.8227H39.2982V33.8422C39.9266 33.5774 40.4855 33.431 41.0231 33.3175V24.1424C41.0231 24.1119 41.0335 24.0802 41.0335 24.0497V23.9258C41.0438 21.0739 42.7383 21.5291 42.7383 21.5291C43.7389 21.6322 43.9671 23.027 44.0178 23.8227C44.0697 24.3291 44.4211 24.37 44.4211 24.37H45.196C45.4944 24.37 45.5579 24.1424 45.5579 23.9667C45.5475 23.9045 45.5475 23.8428 45.5371 23.7708V23.7598C45.4651 23.1716 45.3425 22.2723 45.1765 21.7872C45.0734 21.5291 44.9379 21.3015 44.7927 21.1154C44.7622 21.0739 44.7323 21.033 44.7 20.9915C44.6603 20.9506 44.6273 20.9091 44.5871 20.878C44.5041 20.795 44.4217 20.723 44.3387 20.6608C44.2551 20.5888 44.163 20.5266 44.0703 20.4649C44.0703 20.4552 44.0599 20.4552 44.0599 20.4552C43.8848 20.3515 43.7097 20.2685 43.512 20.1965C43.2337 20.0927 42.9854 20.0519 42.7999 20.0201C42.6858 20.0104 42.5833 20 42.4686 20C42.4588 20 42.4491 20 42.4491 20H42.3984C40.693 20 39.2994 21.3942 39.2994 23.0996V27.4593H31.1665V24.1424C31.1665 24.1119 31.1775 24.0802 31.1775 24.0497V23.9258C31.1775 21.0739 32.8823 21.5291 32.8823 21.5291C33.8744 21.6322 34.1117 23.027 34.163 23.8227C34.2155 24.3291 34.5669 24.37 34.5669 24.37H35.3412C35.6402 24.37 35.7024 24.1424 35.7024 23.9667C35.6927 23.9045 35.6927 23.8428 35.6823 23.7708V23.7598C35.6097 23.1716 35.4864 22.2723 35.3199 21.7872C35.2174 21.5291 35.0831 21.3015 34.9373 21.1154C34.9074 21.0739 34.8757 21.033 34.8452 20.9915C34.8037 20.9506 34.7738 20.9091 34.7317 20.878C34.6487 20.795 34.5669 20.723 34.4839 20.6608C34.401 20.5888 34.3088 20.5266 34.2161 20.4649C34.2161 20.4552 34.2045 20.4552 34.2045 20.4552C34.0288 20.3515 33.8536 20.2685 33.6578 20.1965C33.3789 20.0927 33.1306 20.0519 32.9445 20.0201C32.8304 20.0104 32.7285 20 32.6138 20C32.6034 20 32.5936 20 32.5936 20H32.5424C30.837 20 29.4434 21.3942 29.4434 23.0996V38.8523C30.0023 38.8547 30.5746 38.8169 31.1665 38.7046ZM31.1665 29.6077H39.2982V31.6737H31.1665V29.6077Z" fill="#D7A469"/>
<path d="M42.7656 35.0518C42.7656 35.0518 46.7695 34.0188 50.9015 36.8921C52.0956 37.8281 53.2257 38.5389 52.4184 39.5067C51.9663 39.9271 51.5788 40.317 50.1583 38.8617C48.7708 37.9245 46.5773 36.5236 42.7656 37.0849C41.2804 37.376 40.1833 37.7634 38.0856 39.7324C35.9872 41.7026 32.8546 43.0908 29.5305 42.7997C26.205 42.5087 24.4612 41.2493 22.6209 39.6677C22.2341 39.1515 22.2341 38.6036 22.4598 38.2796C22.6856 37.9568 23.5575 37.6334 24.042 38.1185C24.5259 38.6036 26.8189 40.5403 29.0783 40.669C31.3384 40.799 33.5978 40.9265 36.6328 38.2473C39.6665 35.5686 41.184 35.3746 42.7656 35.0518Z" fill="#D7A469"/>
<path d="M54.3903 50.4627C54.3903 51.4518 53.5892 52.2529 52.6007 52.2529H22.3975C21.409 52.2529 20.6072 51.4524 20.6072 50.4627V25.2402H18V53.1132C18 54.2536 18.925 55.1787 20.066 55.1787H54.9346C56.0738 55.1787 57 54.2536 57 53.1132V25.2402H54.3909L54.3903 50.4627Z" fill="#D7A469"/>
<circle cx="37.5" cy="37.5" r="35.5" stroke="#D7A469" stroke-width="4"/>
</svg>
